<svg xmlns="http://www.w3.org/2000/svg" version="1.1" xmlns:xlink="http://www.w3.org/1999/xlink" xmlns:svgjs="http://svgjs.dev/svgjs" width="1500" height="412" viewBox="0 0 1500 412"><g transform="matrix(1,0,0,1,-0.9090909090909918,-0.28092634000825)"><svg viewBox="0 0 396 109" data-background-color="#f9f9f9" preserveAspectRatio="xMidYMid meet" height="412" width="1500" xmlns="http://www.w3.org/2000/svg" xmlns:xlink="http://www.w3.org/1999/xlink"><g id="tight-bounds" transform="matrix(1,0,0,1,0.2400000000000091,0.0743227452934434)"><svg viewBox="0 0 395.52 108.85135450941313" height="108.85135450941313" width="395.52"><g><svg viewBox="0 0 572.7950136746782 157.6393433827026" height="108.85135450941313" width="395.52"><g transform="matrix(1,0,0,1,0,21.786624157812014)"><svg viewBox="0 0 395.52 114.06609506707858" height="114.06609506707858" width="395.52"><g id="textblocktransform"><svg viewBox="0 0 395.52 114.06609506707858" height="114.06609506707858" width="395.52" id="textblock"><g><svg viewBox="0 0 395.52 83.17520752628667" height="83.17520752628667" width="395.52"><g transform="matrix(1,0,0,1,0,0)"><svg width="395.52" viewBox="1.73 -37.75 180.68 38" height="83.17520752628667" data-palette-color="#030303"><path d="M16.15 0.25L16.15 0.25Q23.6 0.25 27.1-3.86 30.6-7.98 30.6-16.88L30.6-16.88Q30.6-25.78 27.1-29.9 23.6-34.02 16.15-34.02L16.15-34.02Q8.68-34.02 5.2-29.91 1.73-25.8 1.73-16.88L1.73-16.88Q1.73-7.98 5.21-3.86 8.7 0.25 16.15 0.25ZM16.15-3.3L16.15-3.3Q12.03-3.3 9.43-5.98 6.83-8.65 6.83-16.88L6.83-16.88Q6.83-25.15 9.43-27.81 12.03-30.48 16.15-30.48L16.15-30.48Q20.3-30.48 22.9-27.81 25.5-25.15 25.5-16.88L25.5-16.88Q25.5-8.65 22.9-5.98 20.3-3.3 16.15-3.3ZM35.27-29.63L35.27 0 40.35 0 40.35-24.7 39.25-29.63 35.27-29.63ZM51.85-17.78L51.85 0 56.9 0 56.9-18.13Q56.9-23.18 55.1-26.54 53.3-29.9 48.25-29.9L48.25-29.9Q43.8-29.9 40.71-26.61 37.62-23.33 37.62-19L37.62-19 40.3-17.65Q40.3-21.75 42.05-24.05 43.8-26.35 46.62-26.35L46.62-26.35Q49.42-26.35 50.64-24.24 51.85-22.13 51.85-17.78L51.85-17.78ZM68.35-17.78L68.35 0 73.4 0 73.4-18.13Q73.4-23.18 71.62-26.54 69.85-29.9 64.82-29.9L64.82-29.9Q60.35-29.9 57.26-26.59 54.17-23.28 54.17-19L54.17-19 56.87-17.65Q56.87-21.75 58.62-24.05 60.37-26.35 63.17-26.35L63.17-26.35Q66-26.35 67.17-24.24 68.35-22.13 68.35-17.78L68.35-17.78ZM78.87-29.63L78.87 0 83.92 0 83.92-23.9 82.84-29.63 78.87-29.63ZM97.44-16.93L97.44 0 102.5 0 102.5-16.95Q102.5-23 100.36-26.46 98.22-29.93 93.07-29.93L93.07-29.93Q87.89-29.93 84.61-26.7 81.32-23.48 81.32-19.83L81.32-19.83 83.77-18.28Q83.77-21.78 85.94-24.08 88.12-26.38 91.25-26.38L91.25-26.38Q94.37-26.38 95.91-24.23 97.44-22.08 97.44-16.93L97.44-16.93ZM108.69-29.65L108.69 0 113.77 0 113.77-29.65 108.69-29.65ZM113.77-37.75L108.69-37.75 108.69-33.27 113.77-33.27 113.77-37.75ZM119.76-33.75L119.76 0 137.94 0Q142.76 0 144.23-2.73 145.69-5.45 145.69-9.68L145.69-9.68Q145.69-13.4 144.08-15.75 142.47-18.1 139.79-18.25L139.79-18.25Q142.34-18.38 143.69-20.64 145.04-22.9 145.04-26.05L145.04-26.05Q145.04-29.1 143.6-31.43 142.16-33.75 137.19-33.75L137.19-33.75 119.76-33.75ZM136.64-3.55L124.86-3.55 124.86-16.57 135.64-16.57Q138.44-16.57 139.5-14.89 140.56-13.2 140.56-10.18L140.56-10.18Q140.56-6.93 139.7-5.24 138.84-3.55 136.64-3.55L136.64-3.55ZM135.34-19.75L124.86-19.75 124.86-30.23 135.91-30.23Q138.24-30.23 139.06-28.94 139.89-27.65 139.89-25.35L139.89-25.35Q139.89-22.88 138.89-21.31 137.89-19.75 135.34-19.75L135.34-19.75ZM151.16-29.65L151.16 0 156.24 0 156.24-29.65 151.16-29.65ZM156.24-37.75L151.16-37.75 151.16-33.27 156.24-33.27 156.24-37.75ZM161.88-3.55L161.88 0 182.41 0 182.41-3.53 167.91-3.53 167.91-3.63 182.11-26.05 182.11-29.63 162.06-29.63 162.06-26.1 176.31-26.1 176.31-26.05 161.88-3.55Z" opacity="1" transform="matrix(1,0,0,1,0,0)" fill="#030303" class="wordmark-text-0" data-fill-palette-color="primary" id="text-0"></path></svg></g></svg></g><g transform="matrix(1,0,0,1,163.310208,102.81087781826233)"><svg viewBox="0 0 232.209792 11.255217248816253" height="11.255217248816253" width="232.209792"><g transform="matrix(1,0,0,1,0,0)"><svg width="232.209792" viewBox="4.65 -37 981.95 47.6" height="11.255217248816253" data-palette-color="#030303"><path d="M25.95 0L4.65 0 4.65-34.9 25.95-34.9 25.95-31.2 8.85-31.2 8.85-19.5 24.95-19.5 24.95-15.8 8.85-15.8 8.85-3.7 25.95-3.7 25.95 0ZM37.4 0L33.4 0 33.4-25.8 37.4-25.8 37.4-21.6 37.6-21.6Q38.45-23.6 40-25 41.55-26.4 44.55-26.4L44.55-26.4Q47.1-26.4 49.25-25.18 51.4-23.95 52.45-21.15L52.45-21.15 52.55-21.15Q53.25-23.25 55.17-24.83 57.1-26.4 60.4-26.4L60.4-26.4Q64.35-26.4 66.57-23.83 68.8-21.25 68.8-16.55L68.8-16.55 68.8 0 64.8 0 64.8-15.85Q64.8-19.25 63.45-21.03 62.1-22.8 59.15-22.8L59.15-22.8Q57.6-22.8 56.2-22.28 54.8-21.75 53.95-20.65 53.1-19.55 53.1-17.9L53.1-17.9 53.1 0 49.1 0 49.1-15.85Q49.1-19.3 47.75-21.05 46.4-22.8 43.55-22.8L43.55-22.8Q42-22.8 40.57-22.28 39.15-21.75 38.27-20.65 37.4-19.55 37.4-17.9L37.4-17.9 37.4 0ZM81.05 10L77.05 10 77.05-25.8 81.05-25.8 81.05-21.6 81.25-21.6Q82.25-24.05 84.2-25.23 86.15-26.4 88.8-26.4L88.8-26.4Q92.05-26.4 94.4-24.75 96.75-23.1 98.02-20.08 99.3-17.05 99.3-12.9L99.3-12.9Q99.3-8.8 98.02-5.75 96.75-2.7 94.4-1.05 92.05 0.6 88.8 0.6L88.8 0.6Q86.15 0.6 84.27-0.6 82.4-1.8 81.25-4.2L81.25-4.2 81.05-4.2 81.05 10ZM87.7-3L87.7-3Q91.1-3 93.05-5.13 95-7.25 95-10.7L95-10.7 95-15.1Q95-18.55 93.05-20.68 91.1-22.8 87.7-22.8L87.7-22.8Q85.9-22.8 84.37-22.15 82.85-21.5 81.95-20.4 81.05-19.3 81.05-17.85L81.05-17.85 81.05-8.25Q81.05-6.6 81.95-5.43 82.85-4.25 84.37-3.63 85.9-3 87.7-3ZM115.79 0.6L115.79 0.6Q112.34 0.6 109.72-1.07 107.09-2.75 105.62-5.78 104.14-8.8 104.14-12.9L104.14-12.9Q104.14-17 105.62-20.03 107.09-23.05 109.72-24.73 112.34-26.4 115.79-26.4L115.79-26.4Q119.24-26.4 121.87-24.73 124.49-23.05 125.97-20.03 127.44-17 127.44-12.9L127.44-12.9Q127.44-8.8 125.97-5.78 124.49-2.75 121.87-1.07 119.24 0.6 115.79 0.6ZM115.79-2.95L115.79-2.95Q119.04-2.95 121.09-4.95 123.14-6.95 123.14-11.05L123.14-11.05 123.14-14.75Q123.14-18.85 121.09-20.85 119.04-22.85 115.79-22.85L115.79-22.85Q112.59-22.85 110.52-20.85 108.44-18.85 108.44-14.75L108.44-14.75 108.44-11.05Q108.44-6.95 110.52-4.95 112.59-2.95 115.79-2.95ZM143.09 0L138.24 0 131.34-25.8 135.24-25.8 137.99-14.65 140.74-3.35 140.84-3.35 143.99-14.65 147.24-25.8 150.79-25.8 154.14-14.65 157.34-3.35 157.44-3.35 160.09-14.65 162.89-25.8 166.64-25.8 159.79 0 154.84 0 151.24-12.4 148.99-20.25 148.89-20.25 146.69-12.4 143.09 0ZM182.14 0.6L182.14 0.6Q178.64 0.6 176.04-1.07 173.44-2.75 171.99-5.78 170.54-8.8 170.54-12.9L170.54-12.9Q170.54-17 171.99-20.03 173.44-23.05 176.04-24.73 178.64-26.4 182.14-26.4L182.14-26.4Q185.59-26.4 188.09-24.78 190.59-23.15 191.94-20.3 193.29-17.45 193.29-13.8L193.29-13.8 193.29-11.9 174.74-11.9 174.74-10.7Q174.74-7.35 176.76-5.13 178.79-2.9 182.39-2.9L182.39-2.9Q184.84-2.9 186.66-4.05 188.49-5.2 189.49-7.35L189.49-7.35 192.34-5.3Q191.09-2.7 188.44-1.05 185.79 0.6 182.14 0.6ZM174.74-15.25L174.74-14.9 188.99-14.9 188.99-15.45Q188.99-17.75 188.14-19.45 187.29-21.15 185.74-22.1 184.19-23.05 182.14-23.05L182.14-23.05Q179.99-23.05 178.31-22.05 176.64-21.05 175.69-19.28 174.74-17.5 174.74-15.25L174.74-15.25ZM203.89 0L199.89 0 199.89-25.8 203.89-25.8 203.89-21.05 204.14-21.05Q204.59-22.3 205.54-23.38 206.49-24.45 207.99-25.13 209.49-25.8 211.59-25.8L211.59-25.8 213.14-25.8 213.14-21.8 210.79-21.8Q208.64-21.8 207.09-21.23 205.54-20.65 204.71-19.7 203.89-18.75 203.89-17.5L203.89-17.5 203.89 0ZM222.23 0L218.23 0 218.23-25.8 222.23-25.8 222.23 0ZM220.23-31.85L220.23-31.85Q218.98-31.85 218.38-32.48 217.78-33.1 217.78-34.1L217.78-34.1 217.78-34.75Q217.78-35.75 218.38-36.38 218.98-37 220.23-37L220.23-37Q221.53-37 222.11-36.38 222.68-35.75 222.68-34.75L222.68-34.75 222.68-34.1Q222.68-33.1 222.11-32.48 221.53-31.85 220.23-31.85ZM234.73 0L230.73 0 230.73-25.8 234.73-25.8 234.73-21.6 234.93-21.6Q235.88-23.8 237.61-25.1 239.33-26.4 242.23-26.4L242.23-26.4Q246.23-26.4 248.56-23.83 250.88-21.25 250.88-16.55L250.88-16.55 250.88 0 246.88 0 246.88-15.85Q246.88-19.3 245.41-21.05 243.93-22.8 241.03-22.8L241.03-22.8Q239.43-22.8 237.98-22.28 236.53-21.75 235.63-20.65 234.73-19.55 234.73-17.9L234.73-17.9 234.73 0ZM268.38 10.6L268.38 10.6Q262.33 10.6 259.68 8.95 257.03 7.3 257.03 4.25L257.03 4.25Q257.03 2.15 258.13 0.95 259.23-0.25 261.13-0.75L261.13-0.75 261.13-1.3Q260.03-1.85 259.43-2.73 258.83-3.6 258.83-4.9L258.83-4.9Q258.83-6.85 260.08-7.88 261.33-8.9 263.28-9.4L263.28-9.4 263.28-9.6Q260.98-10.7 259.7-12.75 258.43-14.8 258.43-17.5L258.43-17.5Q258.43-20.15 259.63-22.15 260.83-24.15 263.03-25.28 265.23-26.4 268.13-26.4L268.13-26.4Q269.53-26.4 270.75-26.15 271.98-25.9 273.03-25.4L273.03-25.4 273.03-25.85Q273.03-27.35 273.73-28.33 274.43-29.3 276.03-29.3L276.03-29.3 279.88-29.3 279.88-25.8 274.98-25.8 274.98-24.15Q276.38-22.95 277.15-21.25 277.93-19.55 277.93-17.5L277.93-17.5Q277.93-14.9 276.73-12.88 275.53-10.85 273.33-9.73 271.13-8.6 268.18-8.6L268.18-8.6Q267.53-8.6 266.88-8.68 266.23-8.75 265.68-8.85L265.68-8.85Q264.43-8.5 263.35-7.83 262.28-7.15 262.28-5.95L262.28-5.95Q262.28-4.8 263.38-4.4 264.48-4 266.23-4L266.23-4 271.73-4Q276.53-4 278.7-2.18 280.88-0.35 280.88 2.85L280.88 2.85Q280.88 5.5 279.48 7.23 278.08 8.95 275.3 9.78 272.53 10.6 268.38 10.6ZM266.38 7.35L266.38 7.35 270.08 7.35Q273.43 7.35 275.28 6.3 277.13 5.25 277.13 3.15L277.13 3.15Q277.13 1.6 275.95 0.68 274.78-0.25 271.78-0.25L271.78-0.25 263.18-0.25Q261.93 0.3 261.35 1.18 260.78 2.05 260.78 3.25L260.78 3.25Q260.78 4.95 262.05 6.15 263.33 7.35 266.38 7.35ZM268.18-11.8L268.18-11.8Q270.73-11.8 272.23-13.03 273.73-14.25 273.73-16.8L273.73-16.8 273.73-18.2Q273.73-20.75 272.23-21.98 270.73-23.2 268.18-23.2L268.18-23.2Q265.63-23.2 264.13-21.98 262.63-20.75 262.63-18.2L262.63-18.2 262.63-16.8Q262.63-14.25 264.13-13.03 265.63-11.8 268.18-11.8ZM310.77 0.6L310.77 0.6Q306.27 0.6 302.95-1.48 299.62-3.55 297.8-7.58 295.97-11.6 295.97-17.45L295.97-17.45Q295.97-23.3 297.8-27.33 299.62-31.35 302.95-33.43 306.27-35.5 310.77-35.5L310.77-35.5Q315.27-35.5 318.6-33.43 321.92-31.35 323.75-27.33 325.57-23.3 325.57-17.45L325.57-17.45Q325.57-11.6 323.75-7.58 321.92-3.55 318.6-1.48 315.27 0.6 310.77 0.6ZM310.77-3.15L310.77-3.15Q313.82-3.15 316.12-4.58 318.42-6 319.75-8.55 321.07-11.1 321.07-14.55L321.07-14.55 321.07-20.35Q321.07-23.8 319.75-26.38 318.42-28.95 316.12-30.35 313.82-31.75 310.77-31.75L310.77-31.75Q307.77-31.75 305.45-30.35 303.12-28.95 301.8-26.38 300.47-23.8 300.47-20.35L300.47-20.35 300.47-14.55Q300.47-11.1 301.8-8.55 303.12-6 305.45-4.58 307.77-3.15 310.77-3.15ZM341.77 0L336.92 0 330.02-25.8 333.92-25.8 336.67-14.65 339.42-3.35 339.52-3.35 342.67-14.65 345.92-25.8 349.47-25.8 352.82-14.65 356.02-3.35 356.12-3.35 358.77-14.65 361.57-25.8 365.32-25.8 358.47 0 353.52 0 349.92-12.4 347.67-20.25 347.57-20.25 345.37-12.4 341.77 0ZM375.12 0L371.12 0 371.12-25.8 375.12-25.8 375.12-21.6 375.32-21.6Q376.27-23.8 377.99-25.1 379.72-26.4 382.62-26.4L382.62-26.4Q386.62-26.4 388.94-23.83 391.27-21.25 391.27-16.55L391.27-16.55 391.27 0 387.27 0 387.27-15.85Q387.27-19.3 385.79-21.05 384.32-22.8 381.42-22.8L381.42-22.8Q379.82-22.8 378.37-22.28 376.92-21.75 376.02-20.65 375.12-19.55 375.12-17.9L375.12-17.9 375.12 0ZM409.21 0.6L409.21 0.6Q405.71 0.6 403.12-1.07 400.51-2.75 399.06-5.78 397.62-8.8 397.62-12.9L397.62-12.9Q397.62-17 399.06-20.03 400.51-23.05 403.12-24.73 405.71-26.4 409.21-26.4L409.21-26.4Q412.66-26.4 415.16-24.78 417.66-23.15 419.01-20.3 420.37-17.45 420.37-13.8L420.37-13.8 420.37-11.9 401.81-11.9 401.81-10.7Q401.81-7.35 403.84-5.13 405.87-2.9 409.46-2.9L409.46-2.9Q411.91-2.9 413.74-4.05 415.56-5.2 416.56-7.35L416.56-7.35 419.41-5.3Q418.16-2.7 415.51-1.05 412.87 0.6 409.21 0.6ZM401.81-15.25L401.81-14.9 416.06-14.9 416.06-15.45Q416.06-17.75 415.21-19.45 414.37-21.15 412.81-22.1 411.26-23.05 409.21-23.05L409.21-23.05Q407.06-23.05 405.39-22.05 403.71-21.05 402.76-19.28 401.81-17.5 401.81-15.25L401.81-15.25ZM430.96 0L426.96 0 426.96-25.8 430.96-25.8 430.96-21.05 431.21-21.05Q431.66-22.3 432.61-23.38 433.56-24.45 435.06-25.13 436.56-25.8 438.66-25.8L438.66-25.8 440.21-25.8 440.21-21.8 437.86-21.8Q435.71-21.8 434.16-21.23 432.61-20.65 431.79-19.7 430.96-18.75 430.96-17.5L430.96-17.5 430.96 0ZM453.06 0.6L453.06 0.6Q449.51 0.6 447.06-0.78 444.61-2.15 442.86-4.45L442.86-4.45 445.71-6.75Q447.21-4.9 449.06-3.85 450.91-2.8 453.36-2.8L453.36-2.8Q455.91-2.8 457.33-3.9 458.76-5 458.76-7L458.76-7Q458.76-8.5 457.79-9.6 456.81-10.7 454.26-11.05L454.26-11.05 452.21-11.35Q449.86-11.7 447.96-12.53 446.06-13.35 444.99-14.88 443.91-16.4 443.91-18.8L443.91-18.8Q443.91-22.65 446.54-24.53 449.16-26.4 453.11-26.4L453.11-26.4Q455.21-26.4 456.83-25.9 458.46-25.4 459.76-24.48 461.06-23.55 462.11-22.25L462.11-22.25 459.46-19.85Q458.61-21.05 456.96-22.03 455.31-23 452.81-23L452.81-23Q450.36-23 449.06-21.93 447.76-20.85 447.76-19L447.76-19Q447.76-17.15 449.04-16.28 450.31-15.4 452.71-15L452.71-15 454.71-14.7Q459.01-14.05 460.81-12.23 462.61-10.4 462.61-7.45L462.61-7.45Q462.61-4.95 461.46-3.15 460.31-1.35 458.16-0.38 456.01 0.6 453.06 0.6ZM470.71 6.65L467.36 6.65Q468.86 5.05 469.78 3.63 470.71 2.2 471.11 0.45L471.11 0.45Q470.11 0.2 469.63-0.5 469.16-1.2 469.16-2.2L469.16-2.2 469.16-2.9Q469.16-4.2 469.91-5.03 470.66-5.85 472.21-5.85L472.21-5.85Q473.81-5.85 474.53-5.03 475.26-4.2 475.26-2.9L475.26-2.9 475.26-2.2Q475.26-0.2 474.06 2.3 472.86 4.8 470.71 6.65L470.71 6.65ZM505.25 0.6L505.25 0.6Q501.05 0.6 498.03-1.03 495-2.65 492.9-5.5L492.9-5.5 496-8.1Q497.85-5.65 500.1-4.38 502.35-3.1 505.4-3.1L505.4-3.1Q509.15-3.1 511.13-4.9 513.1-6.7 513.1-9.7L513.1-9.7Q513.1-11.35 512.45-12.5 511.8-13.65 510.38-14.43 508.95-15.2 506.65-15.7L506.65-15.7 503.8-16.35Q500.65-17.1 498.45-18.3 496.25-19.5 495.1-21.4 493.95-23.3 493.95-25.95L493.95-25.95Q493.95-29.05 495.4-31.18 496.85-33.3 499.48-34.4 502.1-35.5 505.5-35.5L505.5-35.5Q509.45-35.5 512.28-34.05 515.1-32.6 517.05-29.8L517.05-29.8 513.9-27.5Q512.5-29.5 510.43-30.65 508.35-31.8 505.3-31.8L505.3-31.8Q501.95-31.8 500.03-30.35 498.1-28.9 498.1-26.1L498.1-26.1Q498.1-24.45 498.83-23.35 499.55-22.25 501-21.53 502.45-20.8 504.65-20.3L504.65-20.3 507.5-19.65Q510.9-18.9 513.05-17.6 515.2-16.3 516.23-14.4 517.25-12.5 517.25-9.9L517.25-9.9Q517.25-6.7 515.8-4.35 514.35-2 511.68-0.7 509 0.6 505.25 0.6ZM534.8 0L529.8 0Q527.75 0 526.65-1.2 525.55-2.4 525.55-4.25L525.55-4.25 525.55-22.3 521.3-22.3 521.3-25.8 523.7-25.8Q525-25.8 525.48-26.33 525.95-26.85 525.95-28.15L525.95-28.15 525.95-32.95 529.55-32.95 529.55-25.8 535.2-25.8 535.2-22.3 529.55-22.3 529.55-3.5 534.8-3.5 534.8 0ZM545.65 0L541.65 0 541.65-25.8 545.65-25.8 545.65-21.05 545.9-21.05Q546.35-22.3 547.3-23.38 548.25-24.45 549.75-25.13 551.25-25.8 553.35-25.8L553.35-25.8 554.9-25.8 554.9-21.8 552.55-21.8Q550.4-21.8 548.85-21.23 547.3-20.65 546.47-19.7 545.65-18.75 545.65-17.5L545.65-17.5 545.65 0ZM569.69 0.6L569.69 0.6Q566.19 0.6 563.59-1.07 560.99-2.75 559.54-5.78 558.09-8.8 558.09-12.9L558.09-12.9Q558.09-17 559.54-20.03 560.99-23.05 563.59-24.73 566.19-26.4 569.69-26.4L569.69-26.4Q573.14-26.4 575.64-24.78 578.14-23.15 579.49-20.3 580.84-17.45 580.84-13.8L580.84-13.8 580.84-11.9 562.29-11.9 562.29-10.7Q562.29-7.35 564.32-5.13 566.34-2.9 569.94-2.9L569.94-2.9Q572.39-2.9 574.22-4.05 576.04-5.2 577.04-7.35L577.04-7.35 579.89-5.3Q578.64-2.7 575.99-1.05 573.34 0.6 569.69 0.6ZM562.29-15.25L562.29-14.9 576.54-14.9 576.54-15.45Q576.54-17.75 575.69-19.45 574.84-21.15 573.29-22.1 571.74-23.05 569.69-23.05L569.69-23.05Q567.54-23.05 565.87-22.05 564.19-21.05 563.24-19.28 562.29-17.5 562.29-15.25L562.29-15.25ZM594.04 0.6L594.04 0.6Q589.94 0.6 587.67-1.5 585.39-3.6 585.39-7.2L585.39-7.2Q585.39-9.65 586.59-11.33 587.79-13 590.22-13.88 592.64-14.75 596.39-14.75L596.39-14.75 601.49-14.75 601.49-17.3Q601.49-20.05 599.99-21.5 598.49-22.95 595.39-22.95L595.39-22.95Q593.09-22.95 591.49-21.9 589.89-20.85 588.84-19.1L588.84-19.1 586.44-21.35Q587.49-23.4 589.79-24.9 592.09-26.4 595.59-26.4L595.59-26.4Q600.24-26.4 602.87-24.1 605.49-21.8 605.49-17.7L605.49-17.7 605.49-3.5 608.44-3.5 608.44 0 606.19 0Q604.04 0 603.04-1.1 602.04-2.2 601.79-3.9L601.79-3.9 601.74-4.2 601.49-4.2Q600.69-1.85 598.72-0.63 596.74 0.6 594.04 0.6ZM594.69-2.8L594.69-2.8Q596.69-2.8 598.22-3.43 599.74-4.05 600.62-5.13 601.49-6.2 601.49-7.5L601.49-7.5 601.49-11.75 596.19-11.75Q592.79-11.75 591.19-10.75 589.59-9.75 589.59-7.85L589.59-7.85 589.59-6.8Q589.59-4.9 590.99-3.85 592.39-2.8 594.69-2.8ZM618.14 0L614.14 0 614.14-25.8 618.14-25.8 618.14-21.6 618.34-21.6Q619.19-23.6 620.74-25 622.29-26.4 625.29-26.4L625.29-26.4Q627.84-26.4 629.99-25.18 632.14-23.95 633.19-21.15L633.19-21.15 633.29-21.15Q633.99-23.25 635.91-24.83 637.84-26.4 641.14-26.4L641.14-26.4Q645.09-26.4 647.31-23.83 649.54-21.25 649.54-16.55L649.54-16.55 649.54 0 645.54 0 645.54-15.85Q645.54-19.25 644.19-21.03 642.84-22.8 639.89-22.8L639.89-22.8Q638.34-22.8 636.94-22.28 635.54-21.75 634.69-20.65 633.84-19.55 633.84-17.9L633.84-17.9 633.84 0 629.84 0 629.84-15.85Q629.84-19.3 628.49-21.05 627.14-22.8 624.29-22.8L624.29-22.8Q622.74-22.8 621.31-22.28 619.89-21.75 619.01-20.65 618.14-19.55 618.14-17.9L618.14-17.9 618.14 0ZM665.59 0L662.04 0Q659.99 0 658.89-1.18 657.79-2.35 657.79-4.15L657.79-4.15 657.79-37 661.79-37 661.79-3.5 665.59-3.5 665.59 0ZM675.38 0L671.38 0 671.38-25.8 675.38-25.8 675.38 0ZM673.38-31.85L673.38-31.85Q672.13-31.85 671.53-32.48 670.93-33.1 670.93-34.1L670.93-34.1 670.93-34.75Q670.93-35.75 671.53-36.38 672.13-37 673.38-37L673.38-37Q674.68-37 675.26-36.38 675.83-35.75 675.83-34.75L675.83-34.75 675.83-34.1Q675.83-33.1 675.26-32.48 674.68-31.85 673.38-31.85ZM687.88 0L683.88 0 683.88-25.8 687.88-25.8 687.88-21.6 688.08-21.6Q689.03-23.8 690.76-25.1 692.48-26.4 695.38-26.4L695.38-26.4Q699.38-26.4 701.71-23.83 704.03-21.25 704.03-16.55L704.03-16.55 704.03 0 700.03 0 700.03-15.85Q700.03-19.3 698.56-21.05 697.08-22.8 694.18-22.8L694.18-22.8Q692.58-22.8 691.13-22.28 689.68-21.75 688.78-20.65 687.88-19.55 687.88-17.9L687.88-17.9 687.88 0ZM716.28 0L712.28 0 712.28-25.8 716.28-25.8 716.28 0ZM714.28-31.85L714.28-31.85Q713.03-31.85 712.43-32.48 711.83-33.1 711.83-34.1L711.83-34.1 711.83-34.75Q711.83-35.75 712.43-36.38 713.03-37 714.28-37L714.28-37Q715.58-37 716.15-36.38 716.73-35.75 716.73-34.75L716.73-34.75 716.73-34.1Q716.73-33.1 716.15-32.48 715.58-31.85 714.28-31.85ZM728.78 0L724.78 0 724.78-25.8 728.78-25.8 728.78-21.6 728.98-21.6Q729.93-23.8 731.65-25.1 733.38-26.4 736.28-26.4L736.28-26.4Q740.28-26.4 742.6-23.83 744.93-21.25 744.93-16.55L744.93-16.55 744.93 0 740.93 0 740.93-15.85Q740.93-19.3 739.45-21.05 737.98-22.8 735.08-22.8L735.08-22.8Q733.48-22.8 732.03-22.28 730.58-21.75 729.68-20.65 728.78-19.55 728.78-17.9L728.78-17.9 728.78 0ZM762.42 10.6L762.42 10.6Q756.37 10.6 753.72 8.95 751.07 7.3 751.07 4.25L751.07 4.25Q751.07 2.15 752.17 0.95 753.27-0.25 755.17-0.75L755.17-0.75 755.17-1.3Q754.07-1.85 753.47-2.73 752.87-3.6 752.87-4.9L752.87-4.9Q752.87-6.85 754.12-7.88 755.37-8.9 757.32-9.4L757.32-9.4 757.32-9.6Q755.02-10.7 753.75-12.75 752.47-14.8 752.47-17.5L752.47-17.5Q752.47-20.15 753.67-22.15 754.87-24.15 757.07-25.28 759.27-26.4 762.17-26.4L762.17-26.4Q763.57-26.4 764.8-26.15 766.02-25.9 767.07-25.4L767.07-25.4 767.07-25.85Q767.07-27.35 767.77-28.33 768.47-29.3 770.07-29.3L770.07-29.3 773.92-29.3 773.92-25.8 769.02-25.8 769.02-24.15Q770.42-22.95 771.2-21.25 771.97-19.55 771.97-17.5L771.97-17.5Q771.97-14.9 770.77-12.88 769.57-10.85 767.37-9.73 765.17-8.6 762.22-8.6L762.22-8.6Q761.57-8.6 760.92-8.68 760.27-8.75 759.72-8.85L759.72-8.85Q758.47-8.5 757.4-7.83 756.32-7.15 756.32-5.95L756.32-5.95Q756.32-4.8 757.42-4.4 758.52-4 760.27-4L760.27-4 765.77-4Q770.57-4 772.75-2.18 774.92-0.35 774.92 2.85L774.92 2.85Q774.92 5.5 773.52 7.23 772.12 8.95 769.35 9.78 766.57 10.6 762.42 10.6ZM760.42 7.35L760.42 7.35 764.12 7.35Q767.47 7.35 769.32 6.3 771.17 5.25 771.17 3.15L771.17 3.15Q771.17 1.6 770 0.68 768.82-0.25 765.82-0.25L765.82-0.25 757.22-0.25Q755.97 0.3 755.4 1.18 754.82 2.05 754.82 3.25L754.82 3.25Q754.82 4.95 756.1 6.15 757.37 7.35 760.42 7.35ZM762.22-11.8L762.22-11.8Q764.77-11.8 766.27-13.03 767.77-14.25 767.77-16.8L767.77-16.8 767.77-18.2Q767.77-20.75 766.27-21.98 764.77-23.2 762.22-23.2L762.22-23.2Q759.67-23.2 758.17-21.98 756.67-20.75 756.67-18.2L756.67-18.2 756.67-16.8Q756.67-14.25 758.17-13.03 759.67-11.8 762.22-11.8ZM804.82 0L799.72 0 788.12-34.9 792.62-34.9 798.37-17.3 802.22-4.2 802.47-4.2 806.42-17.3 812.22-34.9 816.57-34.9 804.82 0ZM831.52 0.6L831.52 0.6Q828.02 0.6 825.42-1.07 822.82-2.75 821.37-5.78 819.92-8.8 819.92-12.9L819.92-12.9Q819.92-17 821.37-20.03 822.82-23.05 825.42-24.73 828.02-26.4 831.52-26.4L831.52-26.4Q834.97-26.4 837.47-24.78 839.97-23.15 841.32-20.3 842.67-17.45 842.67-13.8L842.67-13.8 842.67-11.9 824.12-11.9 824.12-10.7Q824.12-7.35 826.14-5.13 828.17-2.9 831.77-2.9L831.77-2.9Q834.22-2.9 836.04-4.05 837.87-5.2 838.87-7.35L838.87-7.35 841.72-5.3Q840.47-2.7 837.82-1.05 835.17 0.6 831.52 0.6ZM824.12-15.25L824.12-14.9 838.37-14.9 838.37-15.45Q838.37-17.75 837.52-19.45 836.67-21.15 835.12-22.1 833.57-23.05 831.52-23.05L831.52-23.05Q829.37-23.05 827.69-22.05 826.02-21.05 825.07-19.28 824.12-17.5 824.12-15.25L824.12-15.25ZM853.26 0L849.26 0 849.26-25.8 853.26-25.8 853.26-21.6 853.46-21.6Q854.41-23.8 856.14-25.1 857.86-26.4 860.76-26.4L860.76-26.4Q864.76-26.4 867.09-23.83 869.41-21.25 869.41-16.55L869.41-16.55 869.41 0 865.41 0 865.41-15.85Q865.41-19.3 863.94-21.05 862.46-22.8 859.56-22.8L859.56-22.8Q857.96-22.8 856.51-22.28 855.06-21.75 854.16-20.65 853.26-19.55 853.26-17.9L853.26-17.9 853.26 0ZM888.36 0L883.36 0Q881.31 0 880.21-1.2 879.11-2.4 879.11-4.25L879.11-4.25 879.11-22.3 874.86-22.3 874.86-25.8 877.26-25.8Q878.56-25.8 879.04-26.33 879.51-26.85 879.51-28.15L879.51-28.15 879.51-32.95 883.11-32.95 883.11-25.8 888.76-25.8 888.76-22.3 883.11-22.3 883.11-3.5 888.36-3.5 888.36 0ZM903.56 0.6L903.56 0.6Q899.61 0.6 897.23-1.98 894.86-4.55 894.86-9.25L894.86-9.25 894.86-25.8 898.86-25.8 898.86-9.95Q898.86-6.5 900.36-4.75 901.86-3 904.76-3L904.76-3Q906.36-3 907.78-3.53 909.21-4.05 910.11-5.15 911.01-6.25 911.01-7.95L911.01-7.95 911.01-25.8 915.01-25.8 915.01 0 911.01 0 911.01-4.2 910.81-4.2Q910.06-2.35 908.43-0.88 906.81 0.6 903.56 0.6ZM927.51 0L923.51 0 923.51-25.8 927.51-25.8 927.51-21.05 927.76-21.05Q928.21-22.3 929.16-23.38 930.11-24.45 931.61-25.13 933.11-25.8 935.21-25.8L935.21-25.8 936.76-25.8 936.76-21.8 934.41-21.8Q932.26-21.8 930.71-21.23 929.16-20.65 928.33-19.7 927.51-18.75 927.51-17.5L927.51-17.5 927.51 0ZM951.55 0.6L951.55 0.6Q948.05 0.6 945.45-1.07 942.85-2.75 941.4-5.78 939.95-8.8 939.95-12.9L939.95-12.9Q939.95-17 941.4-20.03 942.85-23.05 945.45-24.73 948.05-26.4 951.55-26.4L951.55-26.4Q955-26.4 957.5-24.78 960-23.15 961.35-20.3 962.7-17.45 962.7-13.8L962.7-13.8 962.7-11.9 944.15-11.9 944.15-10.7Q944.15-7.35 946.18-5.13 948.2-2.9 951.8-2.9L951.8-2.9Q954.25-2.9 956.08-4.05 957.9-5.2 958.9-7.35L958.9-7.35 961.75-5.3Q960.5-2.7 957.85-1.05 955.2 0.6 951.55 0.6ZM944.15-15.25L944.15-14.9 958.4-14.9 958.4-15.45Q958.4-17.75 957.55-19.45 956.7-21.15 955.15-22.1 953.6-23.05 951.55-23.05L951.55-23.05Q949.4-23.05 947.73-22.05 946.05-21.05 945.1-19.28 944.15-17.5 944.15-15.25L944.15-15.25ZM977.05 0.6L977.05 0.6Q973.5 0.6 971.05-0.78 968.6-2.15 966.85-4.45L966.85-4.45 969.7-6.75Q971.2-4.9 973.05-3.85 974.9-2.8 977.35-2.8L977.35-2.8Q979.9-2.8 981.33-3.9 982.75-5 982.75-7L982.75-7Q982.75-8.5 981.78-9.6 980.8-10.7 978.25-11.05L978.25-11.05 976.2-11.35Q973.85-11.7 971.95-12.53 970.05-13.35 968.98-14.88 967.9-16.4 967.9-18.8L967.9-18.8Q967.9-22.65 970.53-24.53 973.15-26.4 977.1-26.4L977.1-26.4Q979.2-26.4 980.83-25.9 982.45-25.4 983.75-24.48 985.05-23.55 986.1-22.25L986.1-22.25 983.45-19.85Q982.6-21.05 980.95-22.03 979.3-23 976.8-23L976.8-23Q974.35-23 973.05-21.93 971.75-20.85 971.75-19L971.75-19Q971.75-17.15 973.03-16.28 974.3-15.4 976.7-15L976.7-15 978.7-14.7Q983-14.05 984.8-12.23 986.6-10.4 986.6-7.45L986.6-7.45Q986.6-4.95 985.45-3.15 984.3-1.35 982.15-0.38 980 0.6 977.05 0.6Z" opacity="1" transform="matrix(1,0,0,1,0,0)" fill="#030303" class="slogan-text-1" data-fill-palette-color="secondary" id="text-1"></path></svg></g></svg></g></svg></g></svg></g><g transform="matrix(1,0,0,1,415.15567029197564,0)"><svg viewBox="0 0 157.6393433827026 157.6393433827026" height="157.6393433827026" width="157.6393433827026"><g data-palette-color="#030303"><rect width="43.088087191272045" height="157.6393433827026" fill="#030303" stroke="transparent" data-fill-palette-color="accent" x="0" fill-opacity="1"></rect><rect width="43.088087191272045" height="157.6393433827026" fill="#030303" stroke="transparent" data-fill-palette-color="accent" x="52.5464477942342" fill-opacity="0.75"></rect><rect width="43.088087191272045" height="157.6393433827026" fill="#030303" stroke="transparent" data-fill-palette-color="accent" x="105.0928955884684" fill-opacity="0.5"></rect></g></svg></g></svg></g><defs></defs></svg><rect width="395.52" height="108.85135450941313" fill="none" stroke="none" visibility="hidden"></rect></g></svg></g></svg>